<svg width="149" height="34" viewBox="0 0 149 34" fill="none" xmlns="http://www.w3.org/2000/svg">
<g clip-path="url(#clip0)">
<path fill-rule="evenodd" clip-rule="evenodd" d="M31.273 -3.68448e-06C16.487 -3.68448e-06 4.326 11.078 3.037 25.157C5.494 21.783 8.503 18.536 12.26 14.803C12.3965 14.6677 12.5803 14.5909 12.7725 14.5891C12.9646 14.5872 13.1499 14.6604 13.289 14.793C13.575 15.066 13.579 15.515 13.299 15.794C12.3928 16.6945 11.4967 17.6052 10.611 18.526L10.436 18.71C5.793 23.552 2.474 27.767 0.0640001 33.001C0.0251926 33.0863 0.00386052 33.1785 0.00126176 33.2722C-0.001337 33.3659 0.0148502 33.4592 0.0488688 33.5465C0.0828873 33.6338 0.134048 33.7134 0.199335 33.7807C0.264622 33.8479 0.342712 33.9014 0.429 33.938C0.604391 34.0148 0.802706 34.0206 0.982281 33.9542C1.16186 33.8878 1.30871 33.7544 1.392 33.582C2.2437 31.7492 3.2381 29.9861 4.366 28.309C14.525 28.056 23.772 22.552 28.618 13.794C28.6774 13.6863 28.7072 13.5648 28.7044 13.4418C28.7016 13.3189 28.6663 13.1989 28.602 13.094C28.5355 12.9884 28.4432 12.9015 28.3339 12.8413C28.2246 12.7812 28.1018 12.7497 27.977 12.75H25.283L30.113 10.061C30.2655 9.97723 30.3821 9.84068 30.441 9.677C31.4668 6.79771 31.9941 3.76456 32 0.707996C31.9974 0.517741 31.9193 0.33631 31.783 0.203559C31.6467 0.0708081 31.4633 -0.00240698 31.273 -3.68448e-06V-3.68448e-06Z" fill="#68D391"/>
<path d="M45.459 16.4873V23H41.6504V4.51562H48.8613C50.2493 4.51562 51.4681 4.76953 52.5176 5.27734C53.5755 5.78516 54.388 6.50879 54.9551 7.44824C55.5221 8.37923 55.8057 9.44141 55.8057 10.6348C55.8057 12.446 55.1836 13.8763 53.9395 14.9258C52.7038 15.9668 50.9899 16.4873 48.7979 16.4873H45.459ZM45.459 13.4023H48.8613C49.8685 13.4023 50.6344 13.1654 51.1592 12.6914C51.6924 12.2174 51.959 11.5404 51.959 10.6602C51.959 9.75456 51.6924 9.02246 51.1592 8.46387C50.626 7.90527 49.8896 7.61751 48.9502 7.60059H45.459V13.4023ZM66 23C65.8307 22.6699 65.708 22.2594 65.6318 21.7686C64.7432 22.7588 63.5879 23.2539 62.166 23.2539C60.8203 23.2539 59.7031 22.8646 58.8145 22.0859C57.9342 21.3073 57.4941 20.3255 57.4941 19.1406C57.4941 17.6849 58.0316 16.5677 59.1064 15.7891C60.1898 15.0104 61.7513 14.6169 63.791 14.6084H65.4795V13.8213C65.4795 13.1865 65.3145 12.6787 64.9844 12.2979C64.6628 11.917 64.1507 11.7266 63.4482 11.7266C62.8304 11.7266 62.3438 11.8747 61.9883 12.1709C61.6413 12.4671 61.4678 12.8734 61.4678 13.3896H57.7988C57.7988 12.5941 58.0443 11.8577 58.5352 11.1807C59.026 10.5036 59.7201 9.97461 60.6172 9.59375C61.5143 9.20443 62.5215 9.00977 63.6387 9.00977C65.3314 9.00977 66.6729 9.43717 67.6631 10.292C68.6618 11.1383 69.1611 12.3317 69.1611 13.8721V19.8262C69.1696 21.1296 69.3516 22.1156 69.707 22.7842V23H66ZM62.9658 20.4482C63.5075 20.4482 64.0068 20.3298 64.4639 20.0928C64.9209 19.8473 65.2594 19.5215 65.4795 19.1152V16.7539H64.1084C62.2718 16.7539 61.2943 17.3887 61.1758 18.6582L61.1631 18.874C61.1631 19.3311 61.3239 19.7077 61.6455 20.0039C61.9671 20.3001 62.4072 20.4482 62.9658 20.4482ZM79.6982 12.7041C79.1989 12.6364 78.7588 12.6025 78.3779 12.6025C76.9899 12.6025 76.0801 13.0723 75.6484 14.0117V23H71.9795V9.26367H75.4453L75.5469 10.9014C76.2832 9.6403 77.3031 9.00977 78.6064 9.00977C79.0127 9.00977 79.3936 9.06478 79.749 9.1748L79.6982 12.7041ZM89.0547 23C88.8854 22.6699 88.7627 22.2594 88.6865 21.7686C87.7979 22.7588 86.6426 23.2539 85.2207 23.2539C83.875 23.2539 82.7578 22.8646 81.8691 22.0859C80.9889 21.3073 80.5488 20.3255 80.5488 19.1406C80.5488 17.6849 81.0863 16.5677 82.1611 15.7891C83.2445 15.0104 84.806 14.6169 86.8457 14.6084H88.5342V13.8213C88.5342 13.1865 88.3691 12.6787 88.0391 12.2979C87.7174 11.917 87.2054 11.7266 86.5029 11.7266C85.8851 11.7266 85.3984 11.8747 85.043 12.1709C84.696 12.4671 84.5225 12.8734 84.5225 13.3896H80.8535C80.8535 12.5941 81.099 11.8577 81.5898 11.1807C82.0807 10.5036 82.7747 9.97461 83.6719 9.59375C84.569 9.20443 85.5762 9.00977 86.6934 9.00977C88.3861 9.00977 89.7275 9.43717 90.7178 10.292C91.7165 11.1383 92.2158 12.3317 92.2158 13.8721V19.8262C92.2243 21.1296 92.4062 22.1156 92.7617 22.7842V23H89.0547ZM86.0205 20.4482C86.5622 20.4482 87.0615 20.3298 87.5186 20.0928C87.9756 19.8473 88.3141 19.5215 88.5342 19.1152V16.7539H87.1631C85.3265 16.7539 84.349 17.3887 84.2305 18.6582L84.2178 18.874C84.2178 19.3311 84.3786 19.7077 84.7002 20.0039C85.0218 20.3001 85.4619 20.4482 86.0205 20.4482ZM100.023 17.4902L98.7031 18.8105V23H95.0342V3.5H98.7031V14.3037L99.4141 13.3896L102.931 9.26367H107.336L102.372 14.9893L107.768 23H103.553L100.023 17.4902ZM114.991 23.2539C112.977 23.2539 111.335 22.6361 110.065 21.4004C108.804 20.1647 108.174 18.5186 108.174 16.4619V16.1064C108.174 14.7269 108.44 13.4954 108.974 12.4121C109.507 11.3203 110.26 10.4824 111.233 9.89844C112.215 9.30599 113.332 9.00977 114.585 9.00977C116.464 9.00977 117.941 9.60221 119.016 10.7871C120.099 11.972 120.641 13.652 120.641 15.8271V17.3252H111.894C112.012 18.2223 112.368 18.9417 112.96 19.4834C113.561 20.0251 114.318 20.2959 115.232 20.2959C116.646 20.2959 117.75 19.7839 118.546 18.7598L120.349 20.7783C119.799 21.557 119.054 22.1663 118.114 22.6064C117.175 23.0381 116.134 23.2539 114.991 23.2539ZM114.572 11.9805C113.844 11.9805 113.252 12.2259 112.795 12.7168C112.346 13.2077 112.059 13.9102 111.932 14.8242H117.035V14.5322C117.018 13.7197 116.798 13.0934 116.375 12.6533C115.952 12.2048 115.351 11.9805 114.572 11.9805ZM129.058 23.2539C127.043 23.2539 125.401 22.6361 124.132 21.4004C122.871 20.1647 122.24 18.5186 122.24 16.4619V16.1064C122.24 14.7269 122.507 13.4954 123.04 12.4121C123.573 11.3203 124.326 10.4824 125.3 9.89844C126.282 9.30599 127.399 9.00977 128.651 9.00977C130.53 9.00977 132.007 9.60221 133.082 10.7871C134.165 11.972 134.707 13.652 134.707 15.8271V17.3252H125.96C126.078 18.2223 126.434 18.9417 127.026 19.4834C127.627 20.0251 128.385 20.2959 129.299 20.2959C130.712 20.2959 131.817 19.7839 132.612 18.7598L134.415 20.7783C133.865 21.557 133.12 22.1663 132.181 22.6064C131.241 23.0381 130.2 23.2539 129.058 23.2539ZM128.639 11.9805C127.911 11.9805 127.318 12.2259 126.861 12.7168C126.413 13.2077 126.125 13.9102 125.998 14.8242H131.102V14.5322C131.085 13.7197 130.865 13.0934 130.441 12.6533C130.018 12.2048 129.417 11.9805 128.639 11.9805ZM141.194 5.88672V9.26367H143.543V11.9551H141.194V18.8105C141.194 19.3184 141.292 19.6823 141.486 19.9023C141.681 20.1224 142.053 20.2324 142.604 20.2324C143.01 20.2324 143.369 20.2028 143.683 20.1436V22.9238C142.963 23.1439 142.223 23.2539 141.461 23.2539C138.888 23.2539 137.576 21.9548 137.525 19.3564V11.9551H135.52V9.26367H137.525V5.88672H141.194Z" fill="#222222"/>
</g>
<defs>
<clipPath id="clip0">
<rect width="149" height="34" fill="white"/>
</clipPath>
</defs>
</svg>
